<svg version="1.1" xmlns="http://www.w3.org/2000/svg" width="32" height="32" viewBox="0 0 1978 1978">
  <defs>
    <clipPath id="roundedClip">
      <rect width="1978" height="1978" rx="440" ry="440"/>
    </clipPath>
  </defs>
  <!-- White rounded background -->
  <rect width="1978" height="1978" rx="440" ry="440" fill="#ffffff" clip-path="url(#roundedClip)"/>
  <!-- Logo centered horizontally, clipped to rounded shape -->
  <g transform="translate(319, 0)" clip-path="url(#roundedClip)">
    <path fill="#000000" d="M 855.966 381.373 C 873.855 380.737 905.649 380.357 922.9 382.043 C 925.46 442.916 921.98 506.577 922.907 567.707 C 923.141 583.101 919.28 600.04 919.242 615.785 C 919.051 694.123 919.15 772.464 919.153 850.803 L 919.126 1156.58 C 919.115 1197.36 919.253 1238.38 918.726 1279.15 C 918.58 1290.46 917.081 1303.38 916.491 1314.84 C 915.612 1331.92 915.288 1349.58 913.07 1366.49 C 903.575 1438.26 881.905 1507.88 848.992 1572.36 C 836.578 1596.97 816.565 1632.03 800.751 1654.35 C 781.346 1677.95 760.199 1706.99 737.734 1727.75 C 699.203 1763.36 660.117 1800.53 613.59 1825.59 C 598.84 1833.54 584.646 1844.7 570.072 1851.56 C 518.599 1875.77 463.963 1896.23 407.751 1905.89 C 378.207 1910.88 356.442 1917.05 328.598 1902.97 C 325.879 1901.68 309.448 1891.86 307.797 1890.39 C 301.296 1884.62 257.771 1863.27 256.1 1858.81 C 258.868 1856.31 278.637 1856.89 283.28 1857.01 C 325.989 1858.14 363.601 1855.03 405.417 1844.08 C 496.031 1823.51 569.997 1781.74 643.064 1725.26 C 658.474 1713.34 670.126 1700.35 683.922 1687.13 C 753.869 1620.09 804.535 1531.44 829.969 1438.15 C 840.209 1403.34 842.404 1369.28 845.558 1333.71 C 851.44 1267.38 849.802 1201.6 849.809 1134.97 L 849.776 616.685 L 849.766 458.776 L 849.777 410.557 C 849.783 403.414 849.434 390.714 850.22 383.918 C 852.701 381.308 851.728 382.124 855.966 381.373 z"/>
    <path fill="#000000" d="M 570.08 713.398 C 592.65 711.981 620.68 712.662 643.564 712.795 C 641.603 757.384 643.277 812.46 643.3 858.201 L 643.334 1135.42 L 643.323 1221.22 C 643.31 1270.94 642.769 1313.9 631.615 1364.79 C 609.141 1467.33 531.599 1561.05 440.308 1611.1 C 382.496 1642.8 297.5 1657.59 233.232 1658.07 C 182.131 1656.61 94.9885 1647.51 56.0589 1612.76 C 33.7581 1592.86 25.4412 1535.06 12.9681 1509.07 C 10.5575 1500.81 4.89563 1494.74 5.61581 1488.3 L 6.93023 1487.81 C 12.8956 1490.96 18.0615 1499.31 21.7838 1504.96 C 132.14 1650.65 401.39 1610.74 506.898 1474.34 C 588.438 1372.8 571.375 1234.64 572.633 1112.78 C 573.594 1019.72 571.955 925.935 572.177 832.784 C 572.271 793.148 567.725 754.002 570.08 713.398 z"/>
    <path fill="#000000" d="M 708.957 1053.63 C 724.016 1052.42 764.212 1052.65 778.881 1054.04 C 780.725 1089.73 778.814 1127.7 779.305 1163.47 C 780.01 1214.93 779.928 1265.76 774.168 1316.92 C 772.342 1333.14 772.044 1349.9 769.956 1366.21 C 764.223 1410.35 751.989 1453.39 733.654 1493.95 C 687.928 1595.37 595.707 1687.28 496.234 1735.57 C 482.118 1742.42 469.874 1749.14 455.073 1754.71 C 390.567 1779.66 321.93 1792.2 252.771 1791.67 C 225.634 1791.63 200.072 1791.1 174.9 1779.76 C 157.475 1770.29 116.147 1730.98 108.289 1714.8 L 108.977 1713.3 C 110.575 1712.94 218.644 1728.72 237.263 1728.62 C 395.165 1727.75 554.01 1659.93 640.131 1523.51 C 652.313 1504.57 662.925 1484.67 671.862 1464.01 C 689.153 1423.12 706.958 1349.79 708.171 1305.02 C 710.418 1222.08 707.952 1136.75 708.957 1053.63 z"/>
    <path fill="#000000" d="M 989.465 4.71278 C 1016.94 4.41641 1035.74 2.26477 1062.37 10.5266 C 1063.64 22.3067 1062.54 35.9413 1062.84 47.9415 C 1064.6 117.679 1059.91 187.299 1059.88 256.869 L 1059.68 643.741 C 1059.59 712.616 1060.32 783.435 1058.97 852.156 C 1052.91 857.672 999.956 855.297 988.817 855.232 L 988.734 295.193 L 988.734 107.611 C 988.71 77.3077 987.432 34.2688 989.465 4.71278 z"/>
    <path fill="#000000" d="M 52.8769 824.873 C 76.6768 824.651 100.478 824.668 124.278 824.922 C 127.674 841.343 126.962 865.571 126.923 882.722 L 126.869 946.695 L 126.97 1136.1 C 127.057 1255.22 124.358 1379.6 194.905 1482.58 C 206.021 1498.81 218.295 1506.61 220.109 1527.13 C 197.302 1522.06 148.609 1517.47 134.157 1499.98 C 56.5951 1406.12 57.2294 1275.83 57.1052 1160.6 L 57.0227 1016.19 C 57.0077 1002.18 57.2064 987.524 56.5564 973.57 C 55.7678 957.657 53.6178 941.564 53.3554 925.634 C 52.8026 892.084 52.9205 858.427 52.8769 824.873 z"/>
    <path fill="#000000" d="M 230.213 549.467 C 240.724 549.184 252.837 549.632 263.464 549.784 C 263.995 552.375 264.47 554.977 264.89 557.588 C 268.084 577.373 267.199 610.244 267.205 631.19 L 267.226 742.748 L 267.234 985.929 C 267.238 1025.88 267.3 1065.83 267.248 1105.77 C 267.242 1110.07 267.758 1117.64 265.476 1120.83 C 259.149 1124.03 240.042 1123.02 232.028 1122.95 C 219.304 1122.97 206.684 1123.16 193.995 1122.13 C 192.283 1015.54 193.643 905.741 193.468 798.73 L 193.226 650.765 C 193.173 617.762 192.679 584.431 193.851 551.488 C 205.721 549.464 218.141 549.671 230.213 549.467 z"/>
    <path fill="#000000" d="M 340.338 913.101 C 356.429 912.627 384.988 911.23 400.512 917.072 C 403.088 918.042 404.51 920.262 404.915 922.99 C 407.658 941.492 406.851 963.495 406.85 982.23 L 406.84 1080.91 L 406.838 1164.32 C 406.846 1220.24 406.741 1279.92 427.817 1332.65 C 432.419 1343.87 438.313 1354.51 445.381 1364.37 C 456.179 1379.34 466.37 1387.61 471.745 1405.55 C 467.965 1418.79 460.41 1428.35 452.292 1439.13 C 447.933 1444.33 436.55 1459.16 429.079 1454.58 C 402.708 1438.41 386.001 1403.06 370.92 1376.65 C 357.352 1352.88 348.214 1318.61 342.976 1291.93 C 334.565 1223.97 337.389 1152.64 337.284 1084.22 L 337.17 987.842 C 337.159 970.905 335.801 927.564 340.338 913.101 z"/>
    <path fill="#000000" d="M 206.09 1197.28 C 226.368 1196.85 246.656 1197.1 266.917 1198.05 C 267.549 1218.04 267.393 1237.17 268.722 1257.19 C 273.17 1324.22 289.638 1384.7 325.439 1442.14 C 338.323 1462.8 352.381 1480.17 365.899 1500.2 C 359.165 1503.64 355.725 1505.44 348.364 1507.73 C 339.053 1511.29 316.869 1514.08 306.783 1515.4 C 297.138 1507.54 290.453 1498.25 282.391 1489.06 C 220.342 1418.3 196.486 1322.24 196.488 1229.89 C 196.488 1220.62 193.925 1208.68 198.16 1200.03 C 199.368 1197.57 203.548 1197.62 206.09 1197.28 z"/>
    <path fill="#000000" d="M 1128.61 429.39 C 1148.64 428.166 1178.43 429.031 1199.14 429.03 C 1198.28 448.796 1198.97 473.614 1198.98 493.683 L 1198.97 618.629 C 1198.96 626.748 1199.66 666.479 1198.22 670.787 L 1196.25 671.181 C 1172.42 670.8 1149.19 667.475 1124.85 666.789 L 1124.97 494.954 C 1124.97 485.264 1123.93 434.784 1125.6 429.972 L 1128.61 429.39 z"/>
    <path fill="#000000" d="M 582 453.526 C 598.803 453.111 627.794 451.755 643.109 456.281 L 643.397 575.04 C 643.403 583.809 644.538 637.138 641.54 641.133 C 638.178 643.133 634.979 642.734 630.953 642.812 C 610.565 642.87 590.178 642.612 569.798 642.037 C 568.571 620.701 567.326 460.422 570.77 455.058 C 574.417 453.209 577.822 453.589 582 453.526 z"/>
    <path fill="#000000" d="M 740.967 793.521 C 752.728 793.238 766.328 792.669 777.9 793.585 C 780.118 807.373 779.641 844.983 779.653 860.17 L 779.37 979.126 L 747.591 979.287 C 734.679 979.35 721.767 979.247 708.858 978.976 L 708.632 863.564 C 708.648 854.193 707.363 801.756 711.476 796.315 C 718.281 792.506 732.704 793.511 740.967 793.521 z"/>
    <path fill="#000000" d="M 1129.24 964.998 C 1152.31 964.934 1176.04 965.17 1199.04 964.779 C 1197.77 1050.81 1199.77 1137.89 1198.68 1224.03 C 1198.37 1240.76 1196.51 1257.47 1195.86 1274.18 C 1195.05 1296.78 1195.97 1319.47 1194.7 1342.05 C 1193.82 1357.58 1190.95 1373.09 1189.34 1388.58 C 1181.4 1465.22 1162.65 1540.18 1136.71 1612.66 C 1132.87 1623.38 1126.1 1634.22 1121.72 1644.82 C 1105.87 1684.11 1083.91 1720.34 1063.88 1757.56 C 1058.34 1767.85 1049.73 1777.69 1043.53 1787.58 C 1019.75 1825.51 990.925 1855.68 959.021 1886.65 C 923.529 1921.22 879.614 1945.91 831.633 1958.27 C 808.499 1964.44 785.159 1967.22 763.002 1976.28 C 759.276 1977.8 753.743 1979.03 749.765 1980 L 742.854 1980 L 743.365 1979.2 C 749.274 1970.12 764.832 1964.48 774.081 1958.77 C 906.025 1877.33 1011.9 1746.43 1068.44 1602.26 C 1099.73 1522.5 1114.85 1432.69 1123.69 1347.63 C 1125.63 1329.01 1124.39 1309.48 1125.6 1290.74 C 1130.13 1243.62 1129.51 1197.25 1129.49 1149.91 L 1129.24 964.998 z"/>
    <path fill="#000000" d="M 988.837 1109.5 C 1010.22 1108.62 1033.32 1109 1054.85 1109 C 1057.37 1128.4 1060.63 1151.87 1058.87 1171.44 C 1052.78 1238.96 1056.81 1305.49 1050.18 1373.22 C 1038.11 1510.79 986.659 1641.97 901.99 1751.07 C 867.982 1795.33 833.588 1830.14 789.298 1864.18 C 740.024 1902.05 690.325 1941.23 631.275 1962.84 C 616.087 1968.43 604.812 1977.48 588.08 1979.81 C 587.566 1979.88 587.05 1979.94 586.534 1980 L 566.326 1980 C 557.713 1979.25 549.103 1978.55 540.566 1977.16 C 532.971 1975.92 471.254 1963.57 468.855 1960.77 C 468.638 1960.51 468.45 1960.23 468.247 1959.96 C 470.7 1957.13 504.351 1952.44 510.669 1950.1 C 539.68 1939.35 585.622 1924.66 611.354 1910.02 C 648.417 1888.93 696.496 1858.25 729.739 1831.59 C 866.59 1721.85 955.65 1563.4 978.252 1389.45 C 991.3 1292.45 988.136 1206.38 988.837 1109.5 z"/>
    <path fill="#000000" d="M 1266.15 739.77 C 1277.74 736.14 1331.51 733.624 1340 741.052 L 1340 1279.53 C 1338.29 1288.96 1339.15 1300.82 1337.5 1310.71 C 1331.61 1346.08 1330.54 1382.35 1323.75 1417.54 C 1305.62 1511.46 1276.81 1609.67 1219.68 1687.8 C 1213.14 1696.74 1206.04 1708.2 1199.07 1717.14 C 1186.83 1727.87 1133.32 1799.46 1120.92 1798.67 C 1118.15 1794.12 1131.17 1775.41 1134.32 1770.86 C 1168.59 1721.52 1191.51 1663.66 1210.3 1606.83 C 1240.51 1515.47 1255.31 1421.16 1261.76 1325.5 C 1266.51 1255.09 1265.45 1187.75 1265.36 1117.25 L 1265.27 867.894 C 1265.21 825.903 1264.17 781.418 1266.15 739.77 z"/>
  </g>
</svg>
